# xmcd
#
# Track frame offsets:
# 150
# 3698
# 19426
# 21586
# 36505
# 38769
# 54507
# 57774
# 68077
# 70712
# 91161
# 93347
# 113902
# 116025
# 136723
# 139285
# 158130
# 161403
# 174006
# 175694
# 190186
# 191919
# 208154
# 211386
#
# Disc length: 3028 seconds
#
#
# Revision: 0
# Processed by: cddbd v1.5.1PL0 Copyright (c) Steve Scherf et al.
# Submitted via: FreeRIP 2.90 
#
DISCID=530bd218
DTITLE=Buck Helton - Songs Of The Trail
DYEAR=1900
DGENRE=Gospel
TTITLE0=Spoken Intro
TTITLE1=Annie Laurie
TTITLE2=Spoken Intro
TTITLE3=Utah Carol
TTITLE4=Spoken Intro
TTITLE5=Whoopi Ti Yi Yo
TTITLE6=Spoken Intro
TTITLE7=When You and I were young Maggie
TTITLE8=Spoken Intro
TTITLE9=Bury me not on the lome prairie
TTITLE10=Spoken Intro
TTITLE11=Round up in the Spring
TTITLE12=Spoken Intro
TTITLE13=Red River Valley
TTITLE14=Spoken Intro
TTITLE15=Streets og Laredo
TTITLE16=Spoken Intro
TTITLE17=Yellow Rose of Texas
TTITLE18=Spoken Intro
TTITLE19=Cowboy's Dream
TTITLE20=Spoken Intro
TTITLE21=Little Joe the Wrangler
TTITLE22=Spoken Intro
TTITLE23=Home on the Range
EXTD=
EXTT0=
EXTT1=
EXTT2=
EXTT3=
EXTT4=
EXTT5=
EXTT6=
EXTT7=
EXTT8=
EXTT9=
EXTT10=
EXTT11=
EXTT12=
EXTT13=
EXTT14=
EXTT15=
EXTT16=
EXTT17=
EXTT18=
EXTT19=
EXTT20=
EXTT21=
EXTT22=
EXTT23=
PLAYORDER=
